<svg width="22" height="16" fill="none" xmlns="http://www.w3.org/2000/svg"><path d="M21.0617 2.93984c-.1195-.44522-.3539-.85124-.6797-1.17741-.3257-.32618-.7315-.56107-1.1765-.68118C17.5672.640625 11 .640625 11 .640625s-6.56719 0-8.20547.438285c-.44526.11971-.85119.35448-1.17702.68071-.32582.32624-.56007.73246-.679229 1.17788C.5 4.57812.5 8 .5 8s0 3.4219.438281 5.0602c.241409.9046.953909 1.6171 1.856249 1.8586C4.43281 15.3594 11 15.3594 11 15.3594s6.5672 0 8.2055-.4406c.9047-.2415 1.6148-.954 1.8562-1.8586C21.5 11.4219 21.5 8 21.5 8s0-3.42187-.4383-5.06016ZM8.91406 11.1406V4.85938l5.43754 3.11718-5.43754 3.16404Z" fill="#fff"/></svg>