<svg width="19" height="19" fill="none" xmlns="http://www.w3.org/2000/svg"><path d="M9.00195 18.041c-2.46 0-2.75-.013-3.71-.055-.74863-.0246-1.48757-.1768-2.185-.45-.59682-.2323-1.13882-.5861-1.59158-1.039-.45276-.453-.806383-.9951-1.038417-1.592-.262694-.7-.404382-1.4395-.4189999-2.187-.05599998-.958-.05599998-1.272-.05599998-3.713 0-2.467.01299998-2.755.05599998-3.71.0149377-.74647.1566209-1.48499.4189999-2.184.231767-.59766.585627-1.14042 1.038997-1.59361.45336-.45319.99625-.806845 1.594-1.038385C3.8086.215207 4.5473.0731491 5.29395.0590048c.955-.05400002 1.269-.05399992 3.708-.05399992 2.48005 0 2.76505.01299992 3.71005.05399992.748.014 1.49.1560002 2.19.4200002.5975.231808 1.1403.585565 1.5936 1.038715.4534.45316.8073.99578 1.0394 1.59328.267.71.41 1.46.421 2.217.056.958.056 1.271.056 3.711s-.014 2.76-.056 3.707c-.015.7482-.157 1.4884-.42 2.189-.2327.5973-.587 1.1398-1.0404 1.5929-.4534.4531-.9961.8069-1.5936 1.0391-.7.262-1.439.404-2.186.419-.955.055-1.268.055-3.71405.055Zm-.034-16.453c-2.446 0-2.7.012-3.655.055-.57035.00746-1.1352.11265-1.67.311-.39007.14952-.74448.37911-1.04038.67399-.2959.29487-.52674.64847-.67762 1.03801-.2.54-.305 1.111-.311 1.687-.053.969-.053 1.223-.053 3.652 0 2.4.009 2.691.053 3.654.009.57.114 1.135.311 1.67.306.787.93 1.409 1.719 1.711.53411.1996 1.09885.3048 1.669.311.968.056 1.223.056 3.655.056 2.45305 0 2.70705-.012 3.65405-.056.5704-.0069 1.1353-.1121 1.67-.311.3879-.1507.7403-.3804 1.0347-.6746.2944-.2942.5244-.6465.6753-1.0344.2-.54.305-1.112.311-1.688h.011c.043-.956.043-1.211.043-3.65399 0-2.443-.011-2.70001-.054-3.65501-.0091-.56954-.1142-1.13346-.311-1.668-.1506-.38845-.3804-.74129-.6748-1.03605-.2944-.29475-.647-.52495-1.0352-.67595-.5346-.19931-1.0996-.30453-1.67-.311-.967-.055-1.22-.055-3.65405-.055Zm.034 12.036c-.91442.0006-1.80849-.27-2.56911-.7776-.76062-.5076-1.35363-1.2293-1.70402-2.0739-.3504-.84467-.44244-1.77424-.26448-2.67119.17796-.89694.61793-1.72097 1.26424-2.36784.64632-.64688 1.46996-1.08756 2.36675-1.26629.89679-.17874 1.82645-.08751 2.67137.26216.8449.34966 1.5672.94204 2.0754 1.70222.5083.76019.7797 1.65402.7799 2.56844-.0016 1.2252-.4888 2.3998-1.3547 3.2665-.866.8667-2.0402 1.3549-3.26535 1.3575Zm0-7.626c-.59334 0-1.17336.17595-1.66671.5056-.49335.32964-.87786.79818-1.10493 1.34635-.22706.54818-.28647 1.15138-.17071 1.73333.11575.58192.40148 1.11652.82103 1.53602.41956.4196.95411.7053 1.53605.8211.58195.1157 1.18515.0563 1.73332-.1708.5482-.227 1.0167-.6115 1.3464-1.1049.3296-.4933.5056-1.07335.5056-1.6667-.0019-.79508-.3186-1.55706-.8808-2.11927-.5622-.56221-1.32417-.87888-2.11925-.88073Zm4.80005-.713c-.1416-.00052-.2817-.02892-.4123-.08358s-.2491-.13451-.3488-.23498c-.2015-.20292-.314-.47753-.3129-.76344.001-.2859.1156-.55967.3185-.76108.2029-.20142.4775-.31398.7635-.31292.2859.00107.5596.11566.761.31857.2015.20292.314.47753.313.76343-.0011.28591-.1157.55968-.3186.76109-.2029.20142-.4775.31398-.7634.31291Z" fill="#fff"/></svg>