<svg width="22" height="18" fill="none" xmlns="http://www.w3.org/2000/svg"><path d="M6.92 17.94c1.68914.0106 3.3636-.3142 4.9262-.9557 1.5626-.6415 2.9823-1.5869 4.1767-2.7814 1.1945-1.1944 2.1398-2.6141 2.7814-4.1767.6415-1.56262.9663-3.23705.9557-4.92619V4.51c.8756-.64151 1.6335-1.42982 2.24-2.32999-.8245.36059-1.6969.59974-2.59.71.9469-.56422 1.6574-1.45234 2-2.500005-.8825.529441-1.8502.901635-2.86 1.099995C17.8699.765371 16.97.28506 15.9895.123391c-.9806-.16167-1.9871.004313-2.8638.472268-.8767.467951-1.5747 1.211791-1.9861 2.116421-.4114.90463-.5132 1.91962-.2896 2.88793-1.79397-.08806-3.54929-.55298-5.15164-1.3645C4.096 3.424 2.68254 2.28409 1.55.890005.978923 1.88118.805827 3.05233 1.06576 4.16633c.25993 1.114.93347 2.0876 1.88424 2.72368-.70139-.02706-1.38655-.2189-2-.56001v.05c-.006233 1.03584.34272 2.04252.9887 2.85227C2.58469 10.042 3.48867 10.6059 4.5 10.83c-.65236.1755-1.33571.2028-2 .08.29278.8834.85168 1.6546 1.60005 2.2078.74836.5532 1.64954.8614 2.57995.8822-1.59079 1.2805-3.56791 1.9854-5.61 2-.358047-.0104-.715253-.0404-1.07-.09 2.06696 1.3169 4.4692 2.0112 6.92 2" fill="#fff"/></svg>